<?xml version="1.0" encoding="utf-8"?>
<!-- Generator: Adobe Illustrator 16.0.0, SVG Export Plug-In . SVG Version: 6.00 Build 0)  -->
<!DOCTYPE svg PUBLIC "-//W3C//DTD SVG 1.1//EN" "http://www.w3.org/Graphics/SVG/1.1/DTD/svg11.dtd">
<svg version="1.1" id="Layer_1" xmlns="http://www.w3.org/2000/svg" xmlns:xlink="http://www.w3.org/1999/xlink" x="0px" y="0px"
	 width="829.458px" height="263.987px" viewBox="0 0 829.458 263.987" enable-background="new 0 0 829.458 263.987"
	 xml:space="preserve">
<g>
	<g>
		<path d="M132.483,168.769c-1.28-3.989-2.657-8.093-4.126-12.3c-1.474-4.211-2.942-8.4-4.4-12.579H79.062
			c-1.447,4.194-2.904,8.396-4.363,12.612c-1.457,4.212-2.818,8.305-4.07,12.267H43.756c4.325-12.38,8.428-23.821,12.31-34.328
			c3.882-10.506,7.679-20.403,11.398-29.696c3.714-9.286,7.375-18.098,10.977-26.456c3.606-8.347,7.354-16.5,11.235-24.459H114.2
			c3.779,7.958,7.5,16.112,11.166,24.459c3.667,8.357,7.359,17.17,11.085,26.456c3.719,9.292,7.527,19.189,11.414,29.696
			c3.888,10.507,7.997,21.948,12.327,34.328H132.483z M101.393,79.866c-0.578,1.674-1.42,3.941-2.532,6.814
			c-1.113,2.878-2.376,6.197-3.796,9.961c-1.424,3.763-3.012,7.91-4.768,12.439c-1.754,4.531-3.536,9.277-5.345,14.244h32.865
			c-1.761-4.983-3.461-9.746-5.107-14.287c-1.647-4.541-3.219-8.697-4.698-12.466c-1.485-3.763-2.786-7.078-3.909-9.951
			C102.986,83.753,102.079,81.501,101.393,79.866z"/>
	</g>
	<g>
		<path d="M173.295,84.509c4.2-1.209,9.622-2.344,16.257-3.396c6.635-1.052,13.601-1.576,20.895-1.576
			c7.408,0,13.574,0.966,18.498,2.899c4.919,1.944,8.816,4.675,11.689,8.218c2.877,3.536,4.924,7.737,6.139,12.602
			c1.215,4.87,1.825,10.28,1.825,16.252v49.262h-24.712v-46.271c0-7.964-1.052-13.606-3.153-16.921
			c-2.1-3.316-6.025-4.978-11.775-4.978c-1.771,0-3.65,0.087-5.643,0.249c-1.986,0.173-3.757,0.367-5.307,0.583v67.338h-24.712
			V84.509z"/>
	</g>
	<g>
		<path d="M347.949,165.951c-2.214,0.665-4.756,1.302-7.628,1.911c-2.878,0.605-5.885,1.135-9.038,1.578
			c-3.154,0.437-6.361,0.799-9.623,1.073c-3.261,0.276-6.387,0.417-9.372,0.417c-7.187,0-13.601-1.054-19.238-3.154
			c-5.642-2.094-10.394-5.112-14.265-9.038c-3.871-3.925-6.83-8.682-8.876-14.265c-2.046-5.583-3.067-11.857-3.067-18.822
			c0-7.078,0.886-13.465,2.657-19.161c1.766-5.697,4.309-10.535,7.629-14.513c3.316-3.979,7.381-7.02,12.191-9.12
			c4.812-2.106,10.308-3.153,16.5-3.153c3.428,0,6.496,0.334,9.206,0.993c2.71,0.665,5.448,1.609,8.212,2.818V44.042l24.712-3.979
			V165.951z M292.057,124.485c0,7.634,1.712,13.767,5.14,18.411c3.423,4.644,8.514,6.966,15.258,6.966
			c2.214,0,4.255-0.081,6.14-0.248c1.879-0.162,3.423-0.357,4.643-0.578v-44.949c-1.549-0.993-3.568-1.826-6.052-2.489
			c-2.489-0.664-5.005-0.999-7.548-0.999C297.915,100.599,292.057,108.562,292.057,124.485z"/>
	</g>
	<g>
		<path d="M402.514,79.208c7.3,0,13.38,0.831,18.25,2.483c4.858,1.663,8.757,4.039,11.694,7.137
			c2.927,3.094,5.001,6.858,6.22,11.274c1.21,4.427,1.825,9.352,1.825,14.762v51.422c-3.541,0.772-8.467,1.686-14.763,2.732
			c-6.305,1.053-13.935,1.577-22.892,1.577c-5.636,0-10.757-0.497-15.345-1.491c-4.59-0.993-8.542-2.624-11.856-4.892
			c-3.316-2.268-5.864-5.226-7.634-8.876c-1.767-3.649-2.652-8.125-2.652-13.433c0-5.087,1.021-9.396,3.073-12.937
			c2.041-3.542,4.778-6.36,8.206-8.46c3.423-2.101,7.354-3.623,11.781-4.562c4.417-0.939,9.006-1.41,13.763-1.41
			c3.207,0,6.052,0.141,8.542,0.416c2.487,0.275,4.508,0.637,6.051,1.081v-2.322c0-4.201-1.273-7.576-3.81-10.119
			c-2.55-2.548-6.965-3.816-13.272-3.816c-4.199,0-8.346,0.308-12.439,0.913c-4.093,0.604-7.63,1.469-10.616,2.57l-3.153-19.902
			c1.437-0.442,3.239-0.917,5.394-1.414c2.154-0.498,4.503-0.935,7.046-1.323c2.548-0.383,5.226-0.718,8.045-0.999
			C396.791,79.347,399.64,79.208,402.514,79.208z M404.506,151.524c2.436,0,4.758-0.054,6.971-0.166
			c2.208-0.114,3.975-0.275,5.301-0.502V132.12c-0.993-0.227-2.481-0.443-4.475-0.669c-1.992-0.216-3.817-0.33-5.475-0.33
			c-2.322,0-4.509,0.141-6.549,0.416c-2.052,0.275-3.846,0.799-5.39,1.577c-1.555,0.771-2.771,1.825-3.649,3.152
			c-0.885,1.322-1.328,2.98-1.328,4.974c0,3.871,1.295,6.549,3.898,8.044C396.402,150.78,399.972,151.524,404.506,151.524z"/>
	</g>
	<g>
		<path d="M497.724,170.433c-7.191-0.114-13.022-0.886-17.504-2.322c-4.477-1.436-8.012-3.455-10.615-6.058
			c-2.598-2.592-4.362-5.745-5.302-9.449c-0.939-3.703-1.416-7.883-1.416-12.526V44.042l24.719-3.979V135.1
			c0,2.214,0.163,4.206,0.496,5.971c0.335,1.771,0.967,3.262,1.906,4.482s2.296,2.213,4.066,2.98
			c1.766,0.777,4.146,1.273,7.127,1.495L497.724,170.433z"/>
	</g>
	<g>
		<path fill="#8DC63F" d="M599.355,81.529l-11.771,49.592c-1.556,6.302-1.994,12.635-1.328,18.989
			c0.658,6.359,1.934,12.03,3.812,17.008l-22.062,3.148c-1.215-2.437-2.377-5.146-3.478-8.126c-3.099,2.43-6.587,4.476-10.451,6.133
			c-3.873,1.662-8.187,2.489-12.938,2.489c-6.521,0-11.803-1.188-15.843-3.569c-4.037-2.376-7.05-5.523-9.037-9.448
			c-1.986-3.926-3.067-8.434-3.234-13.52c-0.168-5.086,0.415-10.281,1.744-15.593l11.273-47.104h24.718l-11.111,46.773
			c-0.562,2.435-1.027,4.919-1.415,7.462c-0.39,2.543-0.409,4.897-0.082,7.052c0.331,2.153,1.189,3.925,2.572,5.308
			c1.381,1.383,3.567,2.072,6.549,2.072c2.549,0,4.896-0.469,7.05-1.414c2.161-0.934,4.449-2.57,6.885-4.892
			c0.222-2.759,0.578-5.665,1.075-8.704c0.502-3.045,1.024-5.831,1.575-8.38l10.788-45.278H599.355z M592.887,64.445l-9.947,8.791
			l-13.768-12.937l-18.747,12.602l-7.628-10.118l29.691-24.049L592.887,64.445z"/>
	</g>
	<g>
		<path d="M613.998,168.769V44.042l24.711-3.979v41.795c1.659-0.55,3.785-1.074,6.389-1.571c2.596-0.502,5.112-0.75,7.548-0.75
			c7.074,0,12.957,0.966,17.666,2.899c4.696,1.944,8.455,4.676,11.273,8.218c2.82,3.536,4.812,7.737,5.971,12.602
			c1.168,4.87,1.745,10.28,1.745,16.252v49.262h-24.713v-46.271c0-7.964-1.024-13.606-3.072-16.921
			c-2.045-3.316-5.837-4.978-11.36-4.978c-2.213,0-4.286,0.194-6.22,0.583c-1.938,0.389-3.675,0.804-5.227,1.242v66.345H613.998z"/>
	</g>
</g>
<g>
	<polygon fill="#FBB040" points="25.53,229.759 703.54,229.759 716.256,188.165 38.247,188.164 	"/>
</g>
<g>
	<path fill="#FFFFFF" d="M431.45,193.881l8.569-1.326l-2.101,8.568h9.178l-1.658,6.746h-9.123l-2.433,10.174
		c-0.221,0.848-0.359,1.641-0.415,2.377c-0.055,0.738,0.037,1.373,0.277,1.906c0.239,0.535,0.653,0.951,1.243,1.244
		c0.59,0.297,1.4,0.443,2.433,0.443c0.885,0,1.742-0.084,2.571-0.25s1.667-0.395,2.516-0.689l0.608,6.303
		c-1.105,0.406-2.304,0.756-3.594,1.049c-1.291,0.295-2.82,0.443-4.589,0.443c-2.544,0-4.516-0.379-5.916-1.133
		c-1.401-0.756-2.396-1.787-2.985-3.098c-0.59-1.307-0.849-2.809-0.774-4.506c0.073-1.693,0.332-3.482,0.774-5.361L431.45,193.881z"
		/>
	<path fill="#FFFFFF" d="M468.215,208.202c-0.737-0.184-1.465-0.359-2.184-0.525s-1.778-0.248-3.179-0.248
		c-0.517,0-1.088,0.045-1.714,0.137c-0.628,0.094-1.144,0.193-1.549,0.305l-5.362,22.336h-8.238l6.635-27.533
		c1.584-0.516,3.363-1.004,5.335-1.465s4.192-0.691,6.662-0.691c0.921,0,1.944,0.084,3.068,0.248
		c1.124,0.166,2.11,0.436,2.958,0.803L468.215,208.202z"/>
	<path fill="#FFFFFF" d="M495.363,217.655c-0.517,2.102-0.663,4.213-0.442,6.332c0.222,2.119,0.645,4.008,1.272,5.666l-7.354,1.051
		c-0.222-0.441-0.425-0.865-0.608-1.271c-0.185-0.404-0.369-0.865-0.553-1.383c-1.032,0.85-2.176,1.549-3.428,2.102
		c-1.254,0.553-2.654,0.83-4.202,0.83c-1.844,0-3.419-0.324-4.728-0.969s-2.377-1.51-3.206-2.598
		c-0.83-1.088-1.429-2.359-1.797-3.816c-0.369-1.455-0.553-3.012-0.553-4.67c0-2.545,0.45-4.939,1.354-7.188
		c0.902-2.248,2.156-4.211,3.759-5.889c1.604-1.678,3.492-2.994,5.667-3.953s4.534-1.438,7.077-1.438
		c0.332,0,0.912,0.02,1.742,0.055c0.829,0.037,1.777,0.121,2.847,0.248c1.069,0.131,2.192,0.342,3.373,0.637
		c1.179,0.295,2.303,0.701,3.372,1.217L495.363,217.655z M489.613,207.483c-0.479-0.074-0.912-0.129-1.299-0.166
		s-0.857-0.055-1.41-0.055c-1.253,0-2.424,0.312-3.511,0.939c-1.088,0.627-2.037,1.447-2.848,2.461s-1.446,2.184-1.907,3.51
		s-0.69,2.709-0.69,4.146c0,1.77,0.294,3.17,0.884,4.201c0.59,1.033,1.677,1.549,3.263,1.549c0.847,0,1.611-0.166,2.294-0.498
		c0.682-0.332,1.41-0.885,2.185-1.658c0.073-0.92,0.193-1.889,0.359-2.902c0.165-1.014,0.34-1.943,0.524-2.793L489.613,207.483z
		 M497.022,195.43l-3.317,2.93l-4.589-4.312l-6.248,4.201l-2.543-3.371l9.896-8.018L497.022,195.43z"/>
	<path fill="#FFFFFF" d="M501.722,218.596c0-2.506,0.404-4.865,1.216-7.078c0.811-2.211,1.972-4.146,3.483-5.805
		c1.511-1.658,3.345-2.967,5.501-3.926c2.156-0.957,4.562-1.438,7.215-1.438c1.659,0,3.143,0.158,4.451,0.471
		c1.308,0.312,2.496,0.729,3.565,1.244l-2.819,6.412c-0.737-0.293-1.502-0.561-2.294-0.801c-0.793-0.24-1.761-0.359-2.903-0.359
		c-2.764,0-4.939,0.932-6.523,2.791c-1.586,1.863-2.378,4.396-2.378,7.604c0,1.879,0.405,3.4,1.217,4.561
		c0.811,1.162,2.303,1.742,4.479,1.742c1.068,0,2.101-0.111,3.096-0.332s1.88-0.498,2.654-0.83l0.607,6.58
		c-1.032,0.406-2.165,0.766-3.399,1.078c-1.235,0.312-2.737,0.471-4.507,0.471c-2.285,0-4.221-0.332-5.805-0.996
		c-1.585-0.664-2.895-1.557-3.926-2.682c-1.032-1.123-1.778-2.441-2.239-3.953C501.952,221.84,501.722,220.254,501.722,218.596z"/>
	<path fill="#FFFFFF" d="M526.325,218.596c0-2.506,0.404-4.865,1.216-7.078c0.811-2.211,1.972-4.146,3.483-5.805
		c1.511-1.658,3.345-2.967,5.501-3.926c2.156-0.957,4.562-1.438,7.215-1.438c1.659,0,3.143,0.158,4.451,0.471
		c1.308,0.312,2.496,0.729,3.565,1.244l-2.819,6.412c-0.737-0.293-1.502-0.561-2.294-0.801c-0.793-0.24-1.761-0.359-2.903-0.359
		c-2.764,0-4.939,0.932-6.523,2.791c-1.586,1.863-2.378,4.396-2.378,7.604c0,1.879,0.405,3.4,1.217,4.561
		c0.811,1.162,2.303,1.742,4.479,1.742c1.068,0,2.101-0.111,3.096-0.332s1.88-0.498,2.654-0.83l0.607,6.58
		c-1.032,0.406-2.165,0.766-3.399,1.078c-1.235,0.312-2.737,0.471-4.507,0.471c-2.285,0-4.221-0.332-5.805-0.996
		c-1.585-0.664-2.895-1.557-3.926-2.682c-1.032-1.123-1.778-2.441-2.239-3.953C526.554,221.84,526.325,220.254,526.325,218.596z"/>
	<path fill="#FFFFFF" d="M572.876,208.202c-0.737-0.184-1.465-0.359-2.184-0.525s-1.778-0.248-3.179-0.248
		c-0.517,0-1.088,0.045-1.714,0.137c-0.628,0.094-1.144,0.193-1.549,0.305l-5.362,22.336h-8.238l6.635-27.533
		c1.584-0.516,3.363-1.004,5.335-1.465s4.192-0.691,6.662-0.691c0.921,0,1.944,0.084,3.068,0.248
		c1.124,0.166,2.11,0.436,2.958,0.803L572.876,208.202z"/>
	<path fill="#FFFFFF" d="M581.003,230.206h-8.183l6.911-29.082h8.238L581.003,230.206z M593.554,195.43l-3.317,2.93l-4.589-4.312
		l-6.248,4.201l-2.543-3.371l9.896-8.018L593.554,195.43z"/>
	<path fill="#FFFFFF" d="M595.82,193.881l8.569-1.326l-2.101,8.568h9.178l-1.658,6.746h-9.123l-2.433,10.174
		c-0.221,0.848-0.359,1.641-0.415,2.377c-0.055,0.738,0.037,1.373,0.277,1.906c0.239,0.535,0.653,0.951,1.243,1.244
		c0.59,0.297,1.4,0.443,2.433,0.443c0.885,0,1.742-0.084,2.571-0.25s1.667-0.395,2.516-0.689l0.608,6.303
		c-1.105,0.406-2.304,0.756-3.594,1.049c-1.291,0.295-2.82,0.443-4.589,0.443c-2.544,0-4.516-0.379-5.916-1.133
		c-1.401-0.756-2.396-1.787-2.985-3.098c-0.59-1.307-0.849-2.809-0.774-4.506c0.073-1.693,0.332-3.482,0.774-5.361L595.82,193.881z"
		/>
	<path fill="#FFFFFF" d="M618.266,193.881l8.569-1.326l-2.101,8.568h9.178l-1.658,6.746h-9.123l-2.433,10.174
		c-0.221,0.848-0.359,1.641-0.415,2.377c-0.055,0.738,0.037,1.373,0.277,1.906c0.239,0.535,0.653,0.951,1.243,1.244
		c0.59,0.297,1.4,0.443,2.433,0.443c0.885,0,1.742-0.084,2.571-0.25s1.667-0.395,2.516-0.689l0.608,6.303
		c-1.105,0.406-2.304,0.756-3.594,1.049c-1.291,0.295-2.82,0.443-4.589,0.443c-2.544,0-4.516-0.379-5.916-1.133
		c-1.401-0.756-2.396-1.787-2.985-3.098c-0.59-1.307-0.849-2.809-0.774-4.506c0.073-1.693,0.332-3.482,0.774-5.361L618.266,193.881z
		"/>
	<path fill="#FFFFFF" d="M645.135,230.981c-1.954,0-3.648-0.297-5.086-0.885c-1.438-0.59-2.626-1.42-3.566-2.488
		c-0.939-1.068-1.649-2.332-2.128-3.787c-0.479-1.457-0.719-3.068-0.719-4.838c0-2.211,0.359-4.424,1.078-6.635
		s1.777-4.201,3.179-5.971c1.4-1.77,3.114-3.217,5.142-4.34c2.026-1.125,4.349-1.688,6.967-1.688c1.916,0,3.602,0.295,5.059,0.885
		c1.455,0.59,2.653,1.42,3.594,2.488c0.939,1.068,1.649,2.332,2.129,3.787c0.479,1.457,0.719,3.068,0.719,4.838
		c0,2.211-0.352,4.424-1.051,6.635c-0.701,2.211-1.733,4.201-3.097,5.971s-3.068,3.217-5.113,4.34
		C650.195,230.418,647.826,230.981,645.135,230.981z M649.227,207.317c-1.217,0-2.286,0.35-3.207,1.051
		c-0.922,0.699-1.695,1.584-2.322,2.654c-0.627,1.068-1.097,2.238-1.409,3.51c-0.313,1.271-0.47,2.479-0.47,3.621
		c0,1.881,0.294,3.328,0.884,4.34c0.59,1.016,1.659,1.521,3.207,1.521c1.217,0,2.285-0.35,3.207-1.051
		c0.921-0.699,1.694-1.584,2.322-2.654c0.626-1.068,1.096-2.238,1.409-3.51s0.471-2.479,0.471-3.621
		c0-1.881-0.296-3.326-0.885-4.342C651.843,207.825,650.775,207.317,649.227,207.317z M659.953,195.43l-3.317,2.93l-4.589-4.312
		l-6.247,4.201l-2.543-3.371l9.896-8.018L659.953,195.43z"/>
	<path fill="#FFFFFF" d="M682.786,200.627c1.585,0,2.949,0.23,4.092,0.691c1.142,0.461,2.082,1.105,2.819,1.934
		c0.737,0.83,1.29,1.816,1.659,2.959c0.368,1.143,0.553,2.377,0.553,3.703c0,1.549-0.185,3.078-0.553,4.59l-3.76,15.701h-8.238
		l3.649-15.369c0.146-0.627,0.285-1.291,0.415-1.99c0.128-0.701,0.193-1.363,0.193-1.99c0-0.959-0.249-1.779-0.747-2.461
		c-0.497-0.682-1.446-1.023-2.847-1.023c-0.591,0-1.152,0.037-1.687,0.111c-0.535,0.074-1.061,0.166-1.576,0.275l-5.362,22.447
		h-8.238l9.952-41.576l8.569-1.326l-3.372,13.877c0.736-0.146,1.482-0.277,2.239-0.387
		C681.302,200.682,682.048,200.627,682.786,200.627z"/>
</g>
<g>
	<g>
		<g>
			<path fill="#8DC63F" d="M750.809,194.405c-26.354,0-47.79-21.435-47.79-47.783c0-26.347,21.437-47.793,47.79-47.793
				c26.348,0,47.782,21.446,47.782,47.793C798.591,172.97,777.157,194.405,750.809,194.405z M750.809,105.804
				c-22.505,0-40.809,18.313-40.809,40.817c0,22.499,18.304,40.808,40.809,40.808c22.503,0,40.807-18.309,40.807-40.808
				C791.616,124.118,773.312,105.804,750.809,105.804z"/>
		</g>
	</g>
	<g>
		<g>
			<path fill="#8DC63F" d="M738.493,157.292h-19.879v-1.555c0.242,0,0.554-0.012,0.912-0.039c1.236-0.037,2.003-0.35,2.3-0.906
				c0.167-0.297,0.255-1.074,0.255-2.344V139.51c0-1.263-0.088-2.033-0.255-2.332c-0.297-0.566-1.063-0.857-2.3-0.891
				c-0.168,0-0.47-0.005-0.912-0.021v-1.561h19.744c-0.025,0.988-0.039,1.977-0.039,2.948v2.403l0.039,0.334v0.34h-2.296
				c-0.096-1.873-0.235-2.953-0.425-3.25c-0.179-0.297-0.442-0.48-0.794-0.539c-0.353-0.07-1.312-0.109-2.899-0.109h-6.004v7.836
				h2.948c1.409,0,2.235-0.136,2.494-0.379c0.253-0.248,0.433-1.112,0.524-2.574h1.965c-0.021,1.24-0.033,2.521-0.033,3.828
				c0,1.306,0.012,2.731,0.033,4.264h-1.965c-0.092-1.468-0.281-2.354-0.562-2.661s-1.063-0.459-2.349-0.459h-3.056v8.472h6.338
				c1.988,0,3.126-0.156,3.418-0.471c0.297-0.318,0.514-1.598,0.658-3.832h2.139c-0.016,1.025-0.021,2.04-0.021,3.056
				C738.471,155.012,738.477,156.146,738.493,157.292z"/>
		</g>
		<g>
			<path fill="#8DC63F" d="M761.7,140.969c0,2.101-0.822,3.709-2.441,4.843c-1.404,0.972-3.574,1.458-6.517,1.458h-3.791v5.248
				c0,1.307,0.131,2.133,0.399,2.473c0.368,0.476,1.248,0.723,2.656,0.746l0.443,0.031c0.211,0,0.427,0,0.621,0v1.561
				c-1.993-0.049-4.022-0.07-6.086-0.07c-0.166,0-1.954,0.021-5.355,0.07v-1.561c-0.222,0,0.086-0.01,0.919-0.031
				c1.23-0.023,2.003-0.318,2.288-0.881c0.169-0.291,0.254-1.074,0.254-2.338V139.51c0-1.263-0.085-2.033-0.254-2.332
				c-0.285-0.566-1.058-0.857-2.288-0.891c-0.173,0-0.481-0.005-0.919-0.021v-1.561h10.377c3.166,0,5.416,0.384,6.776,1.15
				c0.901,0.498,1.614,1.209,2.133,2.15C761.433,138.944,761.7,139.933,761.7,140.969z M757.618,140.969
				c0-2.91-1.777-4.368-5.353-4.368h-3.314v8.735h3.314C755.84,145.336,757.618,143.879,757.618,140.969z"/>
		</g>
		<g>
			<path fill="#8DC63F" d="M783.987,157.329h-2.145c-0.631,0-1.273,0-1.936,0c-0.676-0.021-1.034-0.037-1.054-0.037h-1.885
				l-0.923,0.037h-2.145v-1.561c1.214-0.021,2.02-0.107,2.403-0.248c0.382-0.152,0.588-0.443,0.588-0.869
				c0-0.427-0.206-1.091-0.588-1.998l-1.427-3.288h-9.647l-1.534,3.698c-0.28,0.691-0.425,1.242-0.425,1.625
				c0,0.519,0.364,0.844,1.122,0.982c0.241,0.043,0.837,0.076,1.793,0.098v1.561h-2.01c-0.557,0-1.166,0-1.824,0
				c-0.652-0.021-0.989-0.037-1.015-0.037h-1.75l-0.875,0.037h-2.008v-1.496c1.054-0.086,1.749-0.291,2.101-0.626
				c0.355-0.323,0.879-1.285,1.588-2.894l7.752-17.709h4.557l7.608,17.709c0.729,1.668,1.219,2.641,1.495,2.894
				c0.259,0.265,0.987,0.47,2.182,0.626V157.329z M774.15,147.206l-4.032-9.957l-4.051,9.957H774.15z"/>
		</g>
	</g>
</g>
</svg>
